# xmcd
#
# Track frame offsets:
#	150
#	13452
#	24533
#	33594
#	45652
#	57974
#	67756
#	79562
#	88263
#	99313
#	108382
#	119091
#	130225
#	140667
#	150373
#	161122
#	174563
#	184915
#	194838
#	205760
#
# Disc length: 2887 seconds
# Revision: 0
# Processed by: cddbd v1.5.2PL0 Copyright (c) Steve Scherf et al.
# Submitted via: dBpowerAMP V12.0
#
DISCID=1d0b4514
DTITLE=Big Joe Turner - The Abosolutely Essential Collection CD3
DYEAR=2016
DGENRE=Blues
TTITLE0=Corrina, Corrina
TTITLE1=Lipstick, Powder And Paint
TTITLE2=My Little Honey Dripper
TTITLE3=Midnight Special Train
TTITLE4=Feelin' Happy
TTITLE5=Red Sails In The Sunset
TTITLE6=After A While
TTITLE7=Love Roller Coaster
TTITLE8=World O' Trouble
TTITLE9=I Need A Girl
TTITLE10=Trouble In Mind
TTITLE11=Teenage Letter
TTITLE12=Wee Baby Blues
TTITLE13=Jump For Joy
TTITLE14=Blues In The Night
TTITLE15=Got You On My Mind
TTITLE16=Love, Oh Careless Love
TTITLE17=Tomorrow Night
TTITLE18=Sweet Sue
TTITLE19=My Reason For Living
EXTD=
EXTT0=
EXTT1=
EXTT2=
EXTT3=
EXTT4=
EXTT5=
EXTT6=
EXTT7=
EXTT8=
EXTT9=
EXTT10=
EXTT11=
EXTT12=
EXTT13=
EXTT14=
EXTT15=
EXTT16=
EXTT17=
EXTT18=
EXTT19=
PLAYORDER=
